<svg id="Capa_1" enable-background="new 0 0 512 512" height="512" viewBox="0 0 512 512" width="512" xmlns="http://www.w3.org/2000/svg" xmlns:xlink="http://www.w3.org/1999/xlink"><linearGradient id="SVGID_1_" gradientUnits="userSpaceOnUse" x1="256" x2="256" y1="512" y2="0"><stop offset="0" stop-color="#fd5900"/><stop offset="1" stop-color="#ffde00"/></linearGradient><linearGradient id="SVGID_2_" gradientUnits="userSpaceOnUse" x1="301" x2="301" y1="331.575" y2="210.57"><stop offset="0" stop-color="#ffe59a"/><stop offset="1" stop-color="#ffffd5"/></linearGradient><g><path d="m166 392h224.7c33.44 0 63.044-22.358 72.023-54.382l48.68-167.43c1.318-4.532.426-9.419-2.407-13.193s-7.277-5.995-11.996-5.995h-378.952l-17.614-82.222c-8.571-39.853-44.501-68.778-85.434-68.778-8.284 0-15 6.716-15 15s6.716 15 15 15c26.457 0 50.577 19.383 56.103 45.074l55.206 257.695c2.799 13.017 9.075 25.057 17.991 34.825-13.878 7.673-23.3 22.458-23.3 39.406 0 20.723 14.085 38.209 33.181 43.414-2.044 5.137-3.181 10.73-3.181 16.586 0 24.813 20.187 45 45 45s45-20.187 45-45c0-5.258-.915-10.305-2.58-15h125.16c-1.665 4.695-2.58 9.742-2.58 15 0 24.813 20.187 45 45 45s45-20.187 45-45c0-5.258-.915-10.305-2.58-15h17.58c8.284 0 15-6.716 15-15s-6.716-15-15-15h-300c-8.271 0-15-6.729-15-15s6.729-15 15-15z" fill="url(#SVGID_1_)"/><g><g><path d="m393.439 210.772c-8.173-1.347-15.892 4.187-17.24 12.361l-15 91c-1.347 8.174 4.187 15.893 12.361 17.24 8.197 1.352 15.896-4.211 17.24-12.361l15-91c1.347-8.175-4.186-15.893-12.361-17.24zm-167.639 12.36c-1.347-8.174-9.063-13.708-17.24-12.361-8.174 1.347-13.708 9.066-12.361 17.24l15 91c1.344 8.154 9.046 13.713 17.24 12.361 8.174-1.347 13.708-9.066 12.361-17.24zm75.2-12.56c-8.284 0-15 6.716-15 15v91c0 8.284 6.716 15 15 15s15-6.716 15-15v-91c0-8.284-6.716-15-15-15z" fill="url(#SVGID_2_)"/></g></g></g></svg>